<svg id="Layer_1" data-name="Layer 1" xmlns="http://www.w3.org/2000/svg" viewBox="0 0 212.27 123.67"><defs><style>.cls-1{fill:none;}.cls-2{fill:#1c3b6b;}.cls-3{fill:#41b7ba;}</style></defs><title>404</title><path d="M60.86,94h9.67v12.5H60.86v12.91H47.13V106.5H2.44L60.86,21.6V94ZM47.13,94V63.52L26.14,94h21Z" transform="translate(-2.44 -4.56)"/><path d="M205,93.71h9.67v12.5H205v12.91H191.3V106.21H146.6L205,21.31v72.4Zm-13.74,0V63.23l-21,30.48h21Z" transform="translate(-2.44 -4.56)"/><path class="cls-1" d="M124.57,88.41l3.2,3.46,5.42,1.54-1.42-1.54,10.76,3.06a27,27,0,0,1-2.47,5.91L137.45,98c-0.29.7-.62,1.37-1,2l2.58,2.79c-0.14.26-.3,0.5-0.45,0.75L139,104a31.79,31.79,0,0,0,4.93-10.11Z" transform="translate(-2.44 -4.56)"/><path class="cls-1" d="M81.59,88.23l4.11-2.57c0.06-.81.16-1.62,0.29-2.43L83.7,84.66a27.06,27.06,0,0,1,1-5.46L90,80.72l-0.48.3L92,81.72,94.82,80,82.65,76.51A31.72,31.72,0,0,0,81.59,88.23Z" transform="translate(-2.44 -4.56)"/><path class="cls-1" d="M92.84,105.91a27.07,27.07,0,0,1-3.75-5.17l-1.94,2.65a31.94,31.94,0,0,0,4.21,4.91Z" transform="translate(-2.44 -4.56)"/><path class="cls-1" d="M111.11,114.48L111,117a31.68,31.68,0,0,0,9.47-.73l-0.33-2.8A26.85,26.85,0,0,1,111.11,114.48Z" transform="translate(-2.44 -4.56)"/><polygon class="cls-1" points="111.85 83.48 114.83 84.33 114.52 81.69 111.35 80.78 111.85 83.48"/><path class="cls-2" d="M111,117l-0.23,5.26a36.65,36.65,0,0,0,10.32-.72l-0.62-5.27A31.68,31.68,0,0,1,111,117Z" transform="translate(-2.44 -4.56)"/><path class="cls-2" d="M76.78,91.23l4.81-3a31.72,31.72,0,0,1,1.06-11.72L94.82,80l0.25-.15-0.35-.15,0.9-.4-14-13.12a36.92,36.92,0,0,0-5.14,22.55C76.53,89.54,76.65,90.39,76.78,91.23Z" transform="translate(-2.44 -4.56)"/><path class="cls-2" d="M137.84,12.56L121.64,8A6.3,6.3,0,0,0,118,20l-8,28.29c-1,.09-2,0.24-3,0.41l4,21.21,1.3-.81L111,70.69l0.83,4.43,1-1.67-0.26,5.84,0.74,4Z" transform="translate(-2.44 -4.56)"/><polygon class="cls-2" points="111.14 79.67 111.35 80.78 114.52 81.69 113.92 76.57 111.14 79.67"/><path class="cls-2" d="M150.32,81.78a37.09,37.09,0,0,0-12.54-24.49l-20.69,23,7.48,8.09,19.37,5.5A31.79,31.79,0,0,1,139,104l2.58,2.79c0.49-.58,1-1.17,1.42-1.79l1,1.1A36.91,36.91,0,0,0,150.32,81.78Z" transform="translate(-2.44 -4.56)"/><path class="cls-2" d="M118.57,76.23l2.78-3.1-0.21-1.83,0.94,1,20.69-23c-0.43-.38-0.87-0.75-1.32-1.11l8.19-28.84A6.28,6.28,0,0,0,151.56,7l-8.72-2.48-24.45,70.7Zm8-21.31a3.39,3.39,0,1,1,2.34,4.19A3.39,3.39,0,0,1,126.61,54.91Z" transform="translate(-2.44 -4.56)"/><path class="cls-2" d="M106.61,73.32a6.45,6.45,0,0,1,.45.75l1.82-2.94L108,66.69l-3.49,4.77A6.4,6.4,0,0,1,106.61,73.32Z" transform="translate(-2.44 -4.56)"/><path class="cls-2" d="M93.83,74.71l2.36-1.47a6.31,6.31,0,0,1,1.46-1.45,6.39,6.39,0,0,1,2.6-1.08l7.66-4.78-4-21.21A37,37,0,0,0,78.59,62.13l14,13.12Z" transform="translate(-2.44 -4.56)"/><path class="cls-2" d="M88.58,112.81l2.78-4.5a31.94,31.94,0,0,1-4.21-4.91l-3.21,4.4A37.29,37.29,0,0,0,88.58,112.81Z" transform="translate(-2.44 -4.56)"/><polygon class="cls-2" points="108.47 65.36 108.61 66.13 109.77 64.55 108.47 65.36"/><path class="cls-2" d="M104.56,71.46L108,66.69l-0.14-.77-7.66,4.78A6.45,6.45,0,0,1,104.56,71.46Z" transform="translate(-2.44 -4.56)"/><polygon class="cls-2" points="94.79 76.2 93.32 74.82 92.64 75.25 94.79 76.2"/><polygon class="cls-2" points="92.64 75.25 93.32 74.82 93.18 74.69 92.28 75.09 92.64 75.25"/><path class="cls-2" d="M69.78,97.23a36.86,36.86,0,0,0,7.16,16.57l3.21-4.4a31.93,31.93,0,0,1-5.56-15.18Z" transform="translate(-2.44 -4.56)"/><path class="cls-2" d="M102.57,121.85h0a31.71,31.71,0,0,1-13.2-7.54l-2.78,4.5a37,37,0,0,0,22.19,9.42L109,123a31.9,31.9,0,0,1-6.41-1.12h0Z" transform="translate(-2.44 -4.56)"/><polygon class="cls-2" points="109.44 70.56 110.22 74.74 110.47 68.89 109.44 70.56"/><path class="cls-2" d="M141.59,106.81a32,32,0,0,1-17.12,10.44l0.62,5.27A37,37,0,0,0,146.67,109L144,106.11c-0.43.63-.88,1.26-1.35,1.87Z" transform="translate(-2.44 -4.56)"/><path class="cls-2" d="M141.59,106.81l1.08,1.17c0.47-.61.92-1.23,1.35-1.87l-1-1.1C142.56,105.63,142.08,106.23,141.59,106.81Z" transform="translate(-2.44 -4.56)"/><polygon class="cls-2" points="113.92 76.57 114.52 81.69 122.13 83.85 114.65 75.76 113.92 76.57"/><circle class="cls-3" cx="129.87" cy="55.84" r="3.39" transform="translate(38.25 160.96) rotate(-74.15)"/><path class="cls-3" d="M104.3,87.38l-3.23-3-12,16.39a27.07,27.07,0,0,0,3.75,5.17Z" transform="translate(-2.44 -4.56)"/><polygon class="cls-3" points="104.35 78.8 100.22 77.63 98.63 79.79 101.87 82.82 104.35 78.8"/><path class="cls-3" d="M86,83.23L89.54,81l-2.88-.82A26.89,26.89,0,0,0,86,83.23Z" transform="translate(-2.44 -4.56)"/><path class="cls-3" d="M84.66,79.2a27.06,27.06,0,0,0-1,5.46L86,83.23a26.89,26.89,0,0,1,.67-3L89.54,81l0.48-.3Z" transform="translate(-2.44 -4.56)"/><path class="cls-3" d="M91,86.85a6.38,6.38,0,0,0,.48,2.69L85,87.72,78.7,91.66a26.9,26.9,0,0,0,3.39,15.09L95.65,88.19Z" transform="translate(-2.44 -4.56)"/><path class="cls-3" d="M116.24,98.55l-4.26-4-0.87,19.92a26.85,26.85,0,0,0,9-1l-2.88-24.56-3-.85Z" transform="translate(-2.44 -4.56)"/><polygon class="cls-3" points="111.85 83.48 109.86 82.92 109.55 90 113.81 93.98 111.85 83.48"/><path class="cls-3" d="M107.72,90.57L107.13,90l-2.35-.67L90.84,111.91a27,27,0,0,0,18.27,8.57l1.18-27-4.21-1.2A6.36,6.36,0,0,0,107.72,90.57Z" transform="translate(-2.44 -4.56)"/><path class="cls-3" d="M107.92,90.25L107.13,90l0.58,0.55C107.79,90.47,107.86,90.36,107.92,90.25Z" transform="translate(-2.44 -4.56)"/><path class="cls-3" d="M133.2,93.41l4.26,4.6a26.87,26.87,0,0,0,1.08-3.09Z" transform="translate(-2.44 -4.56)"/><path class="cls-3" d="M142.54,94.93l-10.76-3.06,1.42,1.54,5.34,1.52A26.87,26.87,0,0,1,137.45,98l2.61,2.83A27,27,0,0,0,142.54,94.93Z" transform="translate(-2.44 -4.56)"/><path class="cls-3" d="M136.48,100l-5.71-6.17-10.51-3,2.88,24.56a27,27,0,0,0,15.47-11.85l-2.55-2.75C136.21,100.58,136.35,100.31,136.48,100Z" transform="translate(-2.44 -4.56)"/><path class="cls-3" d="M136.48,100c-0.14.26-.27,0.53-0.42,0.79l2.55,2.75c0.15-.25.31-0.5,0.45-0.75Z" transform="translate(-2.44 -4.56)"/><path class="cls-3" d="M110.06,78.06a6.26,6.26,0,0,0-2.5-2.6l-4.91,6.72,4.13,1.17Z" transform="translate(-2.44 -4.56)"/><path class="cls-3" d="M103.24,74.71l-0.38.09-0.2.28Z" transform="translate(-2.44 -4.56)"/><path class="cls-3" d="M100.24,71.71l-4.06,2.53a6.44,6.44,0,0,0-.36.58l0.58-.26a6.46,6.46,0,0,0-1.24,1.88A6.45,6.45,0,0,0,95,77.85l4.7,1.33,3-4.11-3.47,2.17a6.21,6.21,0,0,1,3.67-2.44l1.7-2.33A6.45,6.45,0,0,0,100.24,71.71Z" transform="translate(-2.44 -4.56)"/><path class="cls-3" d="M99.18,77.24l3.47-2.17,0.2-.28A6.21,6.21,0,0,0,99.18,77.24Z" transform="translate(-2.44 -4.56)"/><path class="cls-3" d="M111.06,80.06l-3.27,5.3,3.14,0.89A6.43,6.43,0,0,0,111.06,80.06Z" transform="translate(-2.44 -4.56)"/></svg>