<svg id="Layer_1" data-name="Layer 1" xmlns="http://www.w3.org/2000/svg" viewBox="0 0 531.81 104.65"><defs><style>.cls-1{fill:#1c3b6b;}.cls-2{fill:#41b7ba;}</style></defs><title>logo-color</title><path class="cls-1" d="M159.31,294.79a23.18,23.18,0,0,1,8.09,1.26,11.9,11.9,0,0,1,5.25,3.56,9.73,9.73,0,0,1,2.09,5.58,16.67,16.67,0,0,1-1.4,7.33H161.72a3.73,3.73,0,0,1-2.05-.52,1.59,1.59,0,0,1-.49-1.89c0-.17.09-0.33,0.13-0.46s0.09-.28.13-0.46a1,1,0,0,0,.2-0.59,6.15,6.15,0,0,0,.26-2.38,1.2,1.2,0,0,0-1.43-.95,3.52,3.52,0,0,0-2.61,1,9.9,9.9,0,0,0-1.89,3.27,2.34,2.34,0,0,0,.52,2.55,19.68,19.68,0,0,0,2.8,2.52q1.76,1.34,3.75,2.94a15.69,15.69,0,0,1,3.39,3.79,11.7,11.7,0,0,1,1.73,5.06,14,14,0,0,1-1.24,6.73,21.7,21.7,0,0,1-2.87,5.26,13,13,0,0,1-3.95,3.43,17.06,17.06,0,0,1-5.38,1.86,40.76,40.76,0,0,1-7.17.56,23.61,23.61,0,0,1-8.09-1.24,11.66,11.66,0,0,1-5.25-3.55,9.81,9.81,0,0,1-2.09-5.61,17.08,17.08,0,0,1,1.4-7.4h11.54a3.33,3.33,0,0,1,2.28.75q0.85,0.75,0,2.64a1.65,1.65,0,0,0-.16.46,2,2,0,0,0,0,.33,5.38,5.38,0,0,0-.16,2.22,1.19,1.19,0,0,0,1.4.91,3.53,3.53,0,0,0,2.61-1,9.88,9.88,0,0,0,1.89-3.26,2.31,2.31,0,0,0-.52-2.51,18.59,18.59,0,0,0-2.8-2.54q-1.76-1.34-3.75-3a16.47,16.47,0,0,1-3.39-3.78,11.45,11.45,0,0,1-1.73-5.05,14,14,0,0,1,1.24-6.75,21.6,21.6,0,0,1,2.87-5.25,13,13,0,0,1,3.95-3.42,17.07,17.07,0,0,1,5.38-1.86A40.81,40.81,0,0,1,159.31,294.79Z" transform="translate(-130.1 -253.68)"/><path class="cls-1" d="M204.8,301.28a10.64,10.64,0,0,1,4.57,3,9.75,9.75,0,0,1,2.22,4.86,17,17,0,0,1-.36,6.59l-0.2.52a20.42,20.42,0,0,1-2.25,5,13,13,0,0,1-3.69,3.78,18.56,18.56,0,0,1-5.58,2.48,33.2,33.2,0,0,1-7.86,1l4.57-13.63a2.08,2.08,0,0,0,0-2,1.78,1.78,0,0,0-1.66-.82,3.58,3.58,0,0,0-2.35.62,5.9,5.9,0,0,0-1.37,2.32l-6.06,15.46q-0.72,2-.23,2.61a2,2,0,0,0,1.6.59q3.13,0,6.81-.07a32.45,32.45,0,0,0,7.34-1h0.13s0.06,0,.06,0,0,0,.07,0a10.41,10.41,0,0,1,1.34-.2,4.45,4.45,0,0,1,1.34.06,1.37,1.37,0,0,1,.85.49,1.2,1.2,0,0,1-.07,1.14,0.58,0.58,0,0,1-.1.29,0.57,0.57,0,0,0-.1.23,25.41,25.41,0,0,1-3.29,5,12.43,12.43,0,0,1-3.62,2.9,13.3,13.3,0,0,1-4.34,1.34,40.53,40.53,0,0,1-5.45.33h-6.59a17.43,17.43,0,0,1-5.35-.81,8.41,8.41,0,0,1-4.11-2.77,9,9,0,0,1-1.76-5.19,19.71,19.71,0,0,1,1.7-8.05q0.59-1.5,1.3-3.46,0.65-1.7,1.6-4.11t2.25-5.61a23.56,23.56,0,0,1,7.3-10.14,18.34,18.34,0,0,1,11.74-3.82h2.87A20,20,0,0,1,204.8,301.28Z" transform="translate(-130.1 -253.68)"/><path class="cls-1" d="M235.22,311.81a3.66,3.66,0,0,1-1.47.78,6.25,6.25,0,0,1-1.92.33,4.51,4.51,0,0,0-1.37.13l-12.39,30.46H204l17.28-42.46h14a17,17,0,0,1,8.67,2Z" transform="translate(-130.1 -253.68)"/><path class="cls-1" d="M286.16,301.05l-33.33,42.46H237.18l5-42.46h10.44a3.07,3.07,0,0,1,2.15.72,2.42,2.42,0,0,1,.59,2.22l0.06-.06-2.22,19.3,16-20.48a5.27,5.27,0,0,1,1.37-1.17,3.21,3.21,0,0,1,1.7-.52h14Z" transform="translate(-130.1 -253.68)"/><path class="cls-1" d="M309.93,301.28a10.64,10.64,0,0,1,4.57,3,9.75,9.75,0,0,1,2.22,4.86,17,17,0,0,1-.36,6.59l-0.2.52a20.42,20.42,0,0,1-2.25,5,13,13,0,0,1-3.69,3.78,18.56,18.56,0,0,1-5.58,2.48,33.2,33.2,0,0,1-7.86,1l4.57-13.63a2.08,2.08,0,0,0,0-2,1.78,1.78,0,0,0-1.66-.82,3.58,3.58,0,0,0-2.35.62,5.9,5.9,0,0,0-1.37,2.32l-6.06,15.46q-0.72,2-.23,2.61a2,2,0,0,0,1.6.59q3.13,0,6.81-.07a32.45,32.45,0,0,0,7.34-1h0.13s0.06,0,.06,0,0,0,.07,0a10.41,10.41,0,0,1,1.34-.2,4.45,4.45,0,0,1,1.34.06,1.37,1.37,0,0,1,.85.49,1.2,1.2,0,0,1-.07,1.14,0.58,0.58,0,0,1-.1.29,0.57,0.57,0,0,0-.1.23,25.41,25.41,0,0,1-3.29,5,12.43,12.43,0,0,1-3.62,2.9,13.3,13.3,0,0,1-4.34,1.34,40.53,40.53,0,0,1-5.45.33H285.7a17.43,17.43,0,0,1-5.35-.81,8.41,8.41,0,0,1-4.11-2.77,9,9,0,0,1-1.76-5.19,19.71,19.71,0,0,1,1.7-8.05q0.59-1.5,1.3-3.46,0.65-1.7,1.6-4.11t2.25-5.61a23.56,23.56,0,0,1,7.3-10.14,18.34,18.34,0,0,1,11.74-3.82h2.87A20,20,0,0,1,309.93,301.28Z" transform="translate(-130.1 -253.68)"/><path class="cls-1" d="M340.35,311.81a3.66,3.66,0,0,1-1.47.78,6.25,6.25,0,0,1-1.92.33,4.51,4.51,0,0,0-1.37.13L323.2,343.51h-14l17.28-42.46h14a17,17,0,0,1,8.67,2Z" transform="translate(-130.1 -253.68)"/><path class="cls-1" d="M369.24,292.38l-20.87,51.13h-14l19.57-47.94a5.19,5.19,0,0,1,2-2.35,5.06,5.06,0,0,1,2.8-.85h10.57Z" transform="translate(-130.1 -253.68)"/><path class="cls-1" d="M392.95,301.28a10.64,10.64,0,0,1,4.56,3,9.74,9.74,0,0,1,2.22,4.86,17,17,0,0,1-.36,6.59l-0.2.52a20.38,20.38,0,0,1-2.25,5,13,13,0,0,1-3.68,3.78,18.56,18.56,0,0,1-5.58,2.48,33.2,33.2,0,0,1-7.86,1l4.56-13.63a2.08,2.08,0,0,0,0-2,1.78,1.78,0,0,0-1.66-.82,3.57,3.57,0,0,0-2.35.62,5.89,5.89,0,0,0-1.37,2.32L373,330.53q-0.72,2-.23,2.61a2,2,0,0,0,1.6.59q3.13,0,6.82-.07a32.45,32.45,0,0,0,7.34-1h0.13s0.07,0,.07,0,0,0,.07,0a10.44,10.44,0,0,1,1.34-.2,4.45,4.45,0,0,1,1.34.06,1.37,1.37,0,0,1,.85.49,1.19,1.19,0,0,1-.06,1.14,0.58,0.58,0,0,1-.1.29,0.59,0.59,0,0,0-.1.23,25.43,25.43,0,0,1-3.29,5,12.45,12.45,0,0,1-3.62,2.9,13.3,13.3,0,0,1-4.34,1.34,40.53,40.53,0,0,1-5.45.33h-6.59a17.43,17.43,0,0,1-5.35-.81,8.41,8.41,0,0,1-4.11-2.77,9,9,0,0,1-1.76-5.19,19.71,19.71,0,0,1,1.7-8.05q0.59-1.5,1.3-3.46,0.65-1.7,1.6-4.11t2.25-5.61a23.56,23.56,0,0,1,7.3-10.14,18.34,18.34,0,0,1,11.74-3.82h2.87A20,20,0,0,1,392.95,301.28Z" transform="translate(-130.1 -253.68)"/><path class="cls-1" d="M423.7,300.27a23.32,23.32,0,0,1,8.12,1.27,11.89,11.89,0,0,1,5.28,3.59,9.63,9.63,0,0,1,2.05,5.61,17.08,17.08,0,0,1-1.44,7.34H426.18a3.9,3.9,0,0,1-2.09-.52,1.57,1.57,0,0,1-.52-1.89,5.35,5.35,0,0,0,.29-0.82,5.67,5.67,0,0,1,.23-0.68,6.27,6.27,0,0,0,.26-2.41,1.2,1.2,0,0,0-1.43-1,3.48,3.48,0,0,0-2.41.72,4.32,4.32,0,0,0-1.11,1.5,2.93,2.93,0,0,0,.1,3.13,10.11,10.11,0,0,0,2.77,2.48q1.83,1.17,4,2.38a17,17,0,0,1,3.82,2.84,8.66,8.66,0,0,1,2.25,3.88,8.35,8.35,0,0,1-.75,5.45,22.51,22.51,0,0,1-3,5.25,13.47,13.47,0,0,1-3.95,3.42,16.66,16.66,0,0,1-5.32,1.86,40.3,40.3,0,0,1-7.14.55A23.89,23.89,0,0,1,404.1,343a11.65,11.65,0,0,1-5.28-3.55,9.81,9.81,0,0,1-2.09-5.61,16.6,16.6,0,0,1,1.47-7.4h11.48a3.11,3.11,0,0,1,2.15.65q0.72,0.65.13,2.74l-0.2.78a5.36,5.36,0,0,0-.16,2.22,1.19,1.19,0,0,0,1.4.91,3.21,3.21,0,0,0,3.26-2,3,3,0,0,0-.13-3.06,9.79,9.79,0,0,0-2.71-2.48q-1.79-1.17-3.91-2.41a17,17,0,0,1-3.72-2.9,9,9,0,0,1-2.22-3.95,8.64,8.64,0,0,1,.75-5.54,21,21,0,0,1,2.9-5.25,13.35,13.35,0,0,1,4-3.42,17.09,17.09,0,0,1,5.35-1.86A40.3,40.3,0,0,1,423.7,300.27Z" transform="translate(-130.1 -253.68)"/><path class="cls-1" d="M463,300.27a23.32,23.32,0,0,1,8.12,1.27,11.89,11.89,0,0,1,5.28,3.59,9.63,9.63,0,0,1,2.05,5.61,17.08,17.08,0,0,1-1.44,7.34H465.5a3.9,3.9,0,0,1-2.09-.52,1.57,1.57,0,0,1-.52-1.89,5.35,5.35,0,0,0,.29-0.82,5.67,5.67,0,0,1,.23-0.68,6.27,6.27,0,0,0,.26-2.41,1.2,1.2,0,0,0-1.43-1,3.48,3.48,0,0,0-2.41.72,4.32,4.32,0,0,0-1.11,1.5,2.93,2.93,0,0,0,.1,3.13,10.11,10.11,0,0,0,2.77,2.48q1.83,1.17,4,2.38a17,17,0,0,1,3.82,2.84,8.66,8.66,0,0,1,2.25,3.88,8.35,8.35,0,0,1-.75,5.45,22.51,22.51,0,0,1-3,5.25,13.47,13.47,0,0,1-3.95,3.42,16.66,16.66,0,0,1-5.32,1.86,40.3,40.3,0,0,1-7.14.55,23.89,23.89,0,0,1-8.12-1.24,11.65,11.65,0,0,1-5.28-3.55,9.81,9.81,0,0,1-2.09-5.61,16.6,16.6,0,0,1,1.47-7.4H449a3.11,3.11,0,0,1,2.15.65q0.72,0.65.13,2.74l-0.2.78a5.36,5.36,0,0,0-.16,2.22,1.19,1.19,0,0,0,1.4.91,3.21,3.21,0,0,0,3.26-2,3,3,0,0,0-.13-3.06,9.79,9.79,0,0,0-2.71-2.48q-1.79-1.17-3.91-2.41a17,17,0,0,1-3.72-2.9,9,9,0,0,1-2.22-3.95,8.64,8.64,0,0,1,.75-5.54,21,21,0,0,1,2.9-5.25,13.35,13.35,0,0,1,4-3.42,17.09,17.09,0,0,1,5.35-1.86A40.3,40.3,0,0,1,463,300.27Z" transform="translate(-130.1 -253.68)"/><path class="cls-1" d="M592.94,292.38l-20.87,51.13H558l19.57-47.94a5.19,5.19,0,0,1,2-2.35,5.05,5.05,0,0,1,2.8-.85h10.57Z" transform="translate(-130.1 -253.68)"/><path class="cls-1" d="M610.09,343.51h-18a17.39,17.39,0,0,1-5.35-.82,8.22,8.22,0,0,1-4.08-2.77,9.16,9.16,0,0,1-1.73-5.22,19.29,19.29,0,0,1,1.76-8.09q0.33-1,1-2.67l1.37-3.59q0.85-2.22,2.15-5.35a23.55,23.55,0,0,1,7.3-10.14,18.34,18.34,0,0,1,11.74-3.81h0.46a13.4,13.4,0,0,1,6.52,1.56,5,5,0,0,1,1.53-1.14,4.85,4.85,0,0,1,2.12-.42h10.44Zm-13.37-14.43q-1,2.49-.62,3.21a1.77,1.77,0,0,0,1.66.72,3.79,3.79,0,0,0,3.2-1.44l4.11-10.14,2.15-5.69a2.09,2.09,0,0,0,0-2,1.78,1.78,0,0,0-1.66-.82,3.43,3.43,0,0,0-2.32.62,6.82,6.82,0,0,0-1.4,2.26Z" transform="translate(-130.1 -253.68)"/><path class="cls-1" d="M648.24,300.27a19.23,19.23,0,0,1,7.47,1.3,9.71,9.71,0,0,1,4.66,3.85,11.48,11.48,0,0,1,1.53,6.23A24.12,24.12,0,0,1,660,320q-0.91,2.28-1.34,3.42t-0.75,2l-0.72,1.79q-0.39,1-1.17,2.87a42.6,42.6,0,0,1-3.68,7.08,15,15,0,0,1-3.91,4.08,11.68,11.68,0,0,1-4.76,1.86,38.8,38.8,0,0,1-6.1.42h-23l19.57-47.94a4.76,4.76,0,0,1,1.92-2.35,5.21,5.21,0,0,1,2.84-.85h10.57l-3.33,7.89h2ZM646.41,315a2.2,2.2,0,0,0,0-2,1.78,1.78,0,0,0-1.66-.82,3.43,3.43,0,0,0-2.32.62,6.8,6.8,0,0,0-1.4,2.32l-5.41,14q-1,2.49-.62,3.21a1.77,1.77,0,0,0,1.66.72,4.26,4.26,0,0,0,2.35-.59,4.56,4.56,0,0,0,1.56-2.22Z" transform="translate(-130.1 -253.68)"/><path class="cls-1" d="M540.52,297.92L548,271.6a5.73,5.73,0,0,0,1.74-11.24L527,253.9a5.73,5.73,0,0,0-3.36,11l-7.33,25.82A33.86,33.86,0,1,0,540.52,297.92Zm-29.11,54.46a29.08,29.08,0,0,1-20-35.91l55.94,15.88A29.08,29.08,0,0,1,511.42,352.38Z" transform="translate(-130.1 -253.68)"/><path class="cls-2" d="M514.62,325.39a5.87,5.87,0,1,0-8.8-2.5l-10.75-3.05a24.61,24.61,0,1,0,47.35,13.44Z" transform="translate(-130.1 -253.68)"/><circle class="cls-2" cx="522.65" cy="310.79" r="3.39" transform="translate(-49.16 475.02) rotate(-74.15)"/></svg>