<?xml version="1.0" encoding="utf-8"?>
<!-- Generator: Adobe Illustrator 19.2.0, SVG Export Plug-In . SVG Version: 6.00 Build 0)  -->
<svg version="1.1" id="flagstarplanet" xmlns="http://www.w3.org/2000/svg" xmlns:xlink="http://www.w3.org/1999/xlink" x="0px"
	 y="0px" viewBox="0 0 176.8476 234.3107" enable-background="new 0 0 176.8476 234.3107" xml:space="preserve">
<g>
	<path fill="#F8A131" d="M61.25,157.8772l-2.1956-8.1992c-19.3828,8.246-36.4372,22.422-48.0856,41.8124
		C6.1796,199.4672,2.488,208.01,0,216.8772l11.5544,3.242c2.1996-7.8356,5.4652-15.3904,9.7032-22.4492
		c10.332-17.1913,25.4648-29.75,42.6604-37.0313c-0.2775-0.0859-0.5508-0.1871-0.8048-0.332
		C62.1952,159.7756,61.5232,158.9008,61.25,157.8772z"/>
	<path fill="#F8A131" d="M152.992,156.0764c-23.3592-14.0352-50.0896-17.7188-74.8552-12.4377l2.4296,9.0629
		c0.2576,0.9608,0.0976,1.9176-0.3008,2.75c21.992-4.7892,45.7732-1.5664,66.5469,10.914
		c7.9139,4.7536,15.008,10.6091,21.0899,17.41l8.9452-8C169.9648,168.0804,161.9376,161.4516,152.992,156.0764z"/>
	<circle fill="#FCC24C" cx="147.906" cy="206.3107" r="16"/>
	<circle fill="#FCC24C" cx="91.906" cy="186.3107" r="20"/>
	<circle fill="#FCC24C" cx="51.906" cy="218.3107" r="16"/>
	<path fill="#FD5A5A" d="M102.5,82.6076c15.7032-13.6524,52.6445-2.1464,53.0196-2.0292c1.3592,0.4316,2.8552,0.1056,3.906-0.8592
		c1.0549-0.9632,1.5196-2.4165,1.2112-3.8128L145.1756,5.602c-0.3204-1.4612-1.4296-2.6212-2.8788-3.006
		c-1.4763-0.3944-36.5352-9.416-65.9803,8.668c-19.5,11.9764-27.8633,12.4376-30.3869,12.164l19.4648,72.6444
		C73.582,96.0452,89.1288,94.2404,102.5,82.6076z M73.7812,37.2524c0.4728-1.4476,1.7228-2.504,3.2304-2.7228l9.746-1.416
		l4.3596-8.832c1.3436-2.7304,5.828-2.7304,7.1716,0l4.3597,8.832l9.7499,1.416c1.5076,0.2188,2.7576,1.2752,3.2304,2.7228
		c0.4688,1.4492,0.078,3.0388-1.0116,4.1012l-7.0588,6.8752l1.668,9.7068c0.2581,1.502-0.3592,3.0176-1.5896,3.9144
		c-1.2308,0.8984-2.8712,1.0136-4.2112,0.3044l-8.7224-4.584l-8.7152,4.584c-0.5856,0.3068-1.2264,0.4592-1.8632,0.4592
		c-0.828,0-1.6523-0.258-2.3516-0.7636c-1.2304-0.8948-1.8476-2.4124-1.5896-3.9124l1.664-9.7088l-7.0548-6.8768
		C73.7032,40.2892,73.3125,38.6996,73.7812,37.2524z"/>
	<path fill="#FFDC82" d="M81.8476,48.2288l-1.664,9.7088c-0.258,1.5,0.3592,3.0176,1.5896,3.9124
		c0.6993,0.5056,1.5236,0.7636,2.3516,0.7636c0.6368,0,1.2776-0.1524,1.8632-0.4592l8.7152-4.584l8.7224,4.584
		c1.34,0.7092,2.9804,0.594,4.2112-0.3044c1.2304-0.8968,1.8477-2.4124,1.5896-3.9144l-1.668-9.7068l7.0588-6.8752
		c1.0896-1.0624,1.4804-2.652,1.0116-4.1012c-0.4728-1.4476-1.7228-2.504-3.2304-2.7228l-9.7499-1.416l-4.3597-8.832
		c-1.3436-2.7304-5.828-2.7304-7.1716,0l-4.3596,8.832l-9.746,1.416c-1.5076,0.2188-2.7576,1.2752-3.2304,2.7228
		c-0.4687,1.4472-0.078,3.0368,1.0116,4.0996L81.8476,48.2288z"/>
	<path fill="#89714D" d="M80.5664,152.7016l-2.4296-9.0629L65.3944,96.0724L45.9296,23.428L42.1368,9.2756
		c-0.2736-1.0252-0.9456-1.8984-1.8636-2.4296c-0.9216-0.5313-2.0192-0.6776-3.0352-0.3984L25.6485,9.5528
		c-2.1329,0.5724-3.3985,2.7659-2.828,4.8988L59.0544,149.678l2.1956,8.1992c0.2732,1.0236,0.9452,1.8984,1.8632,2.4295
		c0.254,0.1449,0.5273,0.2461,0.8048,0.332c0.3865,0.1213,0.7888,0.2033,1.1952,0.2033c0.3476,0,0.6953-0.0468,1.0353-0.1368
		L77.738,157.6c1.172-0.3128,2.0392-1.1328,2.5276-2.1484C80.664,154.6192,80.824,153.6624,80.5664,152.7016z"/>
</g>
</svg>
