<?xml version="1.0" encoding="utf-8"?>
<!-- Generator: Adobe Illustrator 19.2.0, SVG Export Plug-In . SVG Version: 6.00 Build 0)  -->
<svg version="1.1" id="plantflask" xmlns="http://www.w3.org/2000/svg" xmlns:xlink="http://www.w3.org/1999/xlink" x="0px" y="0px"
	 viewBox="0 0 115.551 227.4289" enable-background="new 0 0 115.551 227.4289" xml:space="preserve">
<g>
	<rect x="24" y="107.4289" fill="none" width="44" height="16"/>
	<path fill="#D8F768" d="M24,143.4289h12v8H24v12h12v8H24v26.0196c0,12.1212,9.8692,21.9804,22,21.9804s22-9.8592,22-21.9804
		v-66.0196H24V143.4289z"/>
	<path fill="#50CCD3" d="M48.004,105.4289c-0.0608,0-0.1192,0-0.178-0.004c-2.2068-0.0976-3.9176-1.9648-3.822-4.168
		c0.0076-0.1912,0.0388-0.832,0.0956-1.828H20H0v8h16v20v16v8v12v8v26.0196c0,16.5312,13.4572,29.9804,30,29.9804
		s30-13.4492,30-29.9804v-70.0196v-20h16v-8H72H52.1172c-0.082,1.3436-0.1192,2.1172-0.1212,2.1756
		C51.9024,103.7493,50.1308,105.4289,48.004,105.4289z M68,197.4485c0,12.1212-9.8692,21.9804-22,21.9804s-22-9.8592-22-21.9804
		v-26.0196h12v-8H24v-12h12v-8H24v-12h44V197.4485z M68,123.4289H24v-16h44V123.4289z"/>
	<path fill="#49A25A" d="M46.9512,51.8313c-10.2264-9.8712-29.8768-4.9804-30.7092-4.7696
		c-1.4628,0.3752-2.5916,1.5428-2.914,3.0156c-0.1856,0.84-4.3904,20.6484,5.838,30.5312c4.83,4.664,10.752,7.6876,16.67,8.5196
		c1.1056,0.1524,2.1876,0.2304,3.242,0.2304c2.09,0,4.0392-0.3712,5.8732-0.9608c0.8416-8.8596,2.3712-21.1368,5.0488-33.164
		C49.0664,54.0537,48.0624,52.9053,46.9512,51.8313z"/>
	<path fill="#49A25A" d="M63.7892,27.8509c1.4824,0.742,2.3024,2.2772,2.2048,3.832c0.3536,0.0312,0.6896,0.1328,1.0488,0.1328
		c1.8712,0,3.8108-0.418,5.7012-1.258c3.582-1.5936,6.756-4.5508,8.9396-8.332c4.6248-8.0116-1.004-18.91-1.66-20.1248
		c-0.7188-1.3284-2.0996-2.1604-3.6328-2.0976c-1.3812,0.0388-13.6312,0.6132-18.256,8.6288
		c-2.1836,3.7772-3.1584,8.004-2.746,11.9024c0.3476,3.2888,1.6972,6.1288,3.7812,8.1444
		C60.3516,27.4641,62.1856,27.0537,63.7892,27.8509z"/>
	<path fill="#49A25A" d="M114.2988,49.5813c-0.828-0.7852-20.4412-19.0744-38.3788-14.258
		c-5.1448,1.3792-9.8672,3.6136-13.8984,6.4924c-4.3184,12.406-6.8476,27.8204-8.2832,39.9024
		c0.6484-1.0196,1.1836-2.1056,1.5936-3.262c2.4804,2.4532,5.6192,4.4648,9.3456,5.8984c4.0528,1.5588,8.5412,2.344,13.1916,2.344
		c3.744,0,7.5936-0.508,11.4044-1.5312c17.9452-4.8088,25.7848-30.4456,26.1092-31.5352
		C115.8164,52.1829,115.3964,50.6165,114.2988,49.5813z"/>
	<path fill="#456782" d="M62.0216,41.8157c1.072-3.082,2.252-5.9884,3.5564-8.5976c0.2464-0.4964,0.3828-1.0156,0.416-1.5352
		c0.0976-1.5548-0.7224-3.09-2.2048-3.832c-1.6036-0.7972-3.4376-0.3868-4.6192,0.828c-0.2792,0.2892-0.5588,0.582-0.748,0.9608
		c-3.6308,7.262-6.3636,16.3516-8.422,25.594c-2.6776,12.0272-4.2072,24.3044-5.0488,33.164
		c-0.4728,4.9844-0.7284,8.8712-0.8516,11.0312c-0.0568,0.996-0.088,1.6368-0.0956,1.828c-0.0956,2.2032,1.6152,4.0704,3.822,4.168
		c0.0588,0.004,0.1172,0.004,0.178,0.004c2.1268,0,3.8984-1.6796,3.992-3.8244c0.002-0.0584,0.0392-0.832,0.1212-2.1756
		c0.1992-3.2148,0.674-9.7344,1.6212-17.7108C55.174,69.6361,57.7032,54.2217,62.0216,41.8157z"/>
</g>
</svg>
