<?xml version="1.0" encoding="utf-8"?>
<!-- Generator: Adobe Illustrator 19.2.0, SVG Export Plug-In . SVG Version: 6.00 Build 0)  -->
<svg version="1.1" id="galaxy" xmlns="http://www.w3.org/2000/svg" xmlns:xlink="http://www.w3.org/1999/xlink" x="0px" y="0px"
	 viewBox="0 0 209.236 206.684" enable-background="new 0 0 209.236 206.684" xml:space="preserve">
<g>
	<path fill="none" d="M34.0001,187.89c-3.8456,0-6.904-1.1524-9.2028-3.4532c-11.6056-11.6052,8.7304-42.0544,28.9608-66.7028
		c-1.6444-1.84-3.2716-3.6876-4.8612-5.5316c-0.2132-0.246-0.3184-0.5388-0.4612-0.82
		c-10.8884,13.7576-19.998,27.2968-26.5996,39.824c-11.1444,21.1604-14.0232,37.5664-7.7012,43.8908
		c6.3204,6.324,22.7268,3.4452,43.8908-7.7032c12.574-6.6252,26.168-15.7772,39.9744-26.7188
		c-1.1364-0.9532-2.2792-1.8944-3.41-2.8632c-1.0916-0.9376-1.4844-2.328-1.2772-3.6524
		c-9.42,7.7812-18.5136,14.5976-26.8556,20.0236C52.3793,183.3391,41.6369,187.89,34.0001,187.89z"/>
	<path fill="none" d="M108.9925,146.1792c-1.4376-1.25-1.6932-3.2696-0.828-4.8788c-3.6504,3.3008-7.2796,6.488-10.8712,9.5312
		c0.8888,0.0232,1.7772,0.2812,2.504,0.9024c1.5136,1.3008,3.0408,2.5664,4.5664,3.8356c2.6016-2.156,5.2028-4.41,7.8044-6.6836
		C111.1097,147.9839,110.0529,147.1012,108.9925,146.1792z"/>
	<path fill="none" d="M58.9497,111.5228c2.326-2.7304,4.6132-5.3632,6.8124-7.8396c-0.8652-0.9612-1.754-1.926-2.5996-2.8792
		c-1.4648-1.652-1.3164-4.1796,0.336-5.6484c1.656-1.4648,4.1836-1.3124,5.6484,0.336c0.6504,0.7344,1.336,1.4768,1.998,2.2108
		c7.7872-8.5272,13.5976-14.3748,14.4532-15.2304c3.324-3.324,81.6364-81.1484,101.9628-60.8008
		c6.8672,6.8672,3.5136,20.4964-10.252,41.6604c-11.7052,17.996-29.6584,39.41-50.5488,60.3008
		c-5.51,5.5116-11.0548,10.8008-16.5664,15.8396c1.334-0.5116,2.8868-0.3396,4.0448,0.668
		c1.3144,1.1408,2.6252,2.2424,3.9356,3.3516c4.8924-4.4532,9.7696-9.0392,14.586-13.8556
		c25.0664-25.0664,45.578-51.6092,57.7616-74.738c11.1464-21.1604,14.0256-37.5664,7.7032-43.8908
		c-2.2108-2.2108-5.6584-3.2968-10.1076-3.2968c-8.2732,0-20.0232,3.754-33.7832,11
		c-23.1288,12.1836-49.6696,32.6952-74.736,57.7616c-9.6484,9.6484-18.6016,19.5156-26.6856,29.3204
		c0.7636,0.1992,1.494,0.5508,2.0468,1.1916C56.2641,108.4955,57.6057,110.0111,58.9497,111.5228z"/>
	<path fill="none" d="M79.7309,112.8391c-0.7736,0.7344-1.764,1.0976-2.752,1.0976c-1.0588,0-2.1152-0.418-2.9024-1.246
		c-0.084-0.086-0.162-0.1756-0.244-0.2616c-2.5724,2.8944-5.0352,5.7304-7.3496,8.4764c0.1952,1.2656-0.1468,2.594-1.1544,3.5352
		c-0.746,0.6916-1.6896,1.0312-2.6348,1.0548c-21.8672,26.8124-30.8868,45.5428-29.3556,50.4024
		c4.7912,1.5,23.168-7.3008,49.5116-28.6408c-0.1012-0.078-0.2224-0.1092-0.318-0.1992
		c-3.9024-3.6212-7.8164-7.3904-11.6348-11.1992c-1.5628-1.5624-1.5664-4.0936-0.006-5.6564c1.5568-1.57,4.09-1.57,5.6584-0.0076
		c3.748,3.742,7.5936,7.4412,11.4236,10.996c0.3612,0.336,0.6172,0.7344,0.8264,1.1484c2.6328-2.2224,5.3396-4.574,8.1072-7.0352
		c-3.824-3.5584-7.6816-7.2616-11.5468-11.0856c-1.5704-1.5548-1.582-4.09-0.0272-5.6604c1.5524-1.5704,4.0876-1.574,5.656-0.0272
		c3.836,3.8008,7.6604,7.4688,11.4552,11c0.1484,0.1404,0.2188,0.3204,0.3416,0.4764c4.9884-4.5896,10.1524-9.5232,15.4904-14.8592
		c44.8008-44.8008,62.8732-78.1916,60.744-84.9376c-6.7636-2.1368-40.1364,15.9452-84.9372,60.746
		c-5.344,5.344-10.2816,10.512-14.8752,15.504c0.2284,0.242,0.4452,0.4804,0.674,0.7228
		C81.4005,108.7883,81.3341,111.3195,79.7309,112.8391z M104.0081,92.6439c6.6172,0,12,5.3828,12,12c0,6.6172-5.3828,12-12,12
		c-6.6172,0-12-5.3828-12-12C92.0081,98.0267,97.3909,92.6439,104.0081,92.6439z"/>
	<path fill="#F8A131" d="M104.3637,155.5695c2.1052,1.7464,4.2068,3.4572,6.3044,5.1252c2.5764-2.1564,5.1544-4.3476,7.7288-6.6132
		c-2.0628-1.6876-4.1368-3.418-6.2288-5.1956C109.5665,151.1595,106.9653,153.4135,104.3637,155.5695z"/>
	<path fill="#F8A131" d="M58.0257,187.394c-21.164,11.1484-37.5704,14.0272-43.8908,7.7032
		c-6.322-6.3244-3.4432-22.7304,7.7012-43.8908c6.6016-12.5272,15.7112-26.0664,26.5996-39.824
		c-0.82-1.6016-0.5448-3.59,0.8808-4.8204c1.0332-0.8868,2.3712-1.082,3.596-0.7696c8.084-9.8048,17.0372-19.672,26.6856-29.3204
		c25.0664-25.0664,51.6072-45.578,74.736-57.7616c13.76-7.246,25.51-11,33.7832-11c4.4492,0,7.8968,1.086,10.1076,3.2968
		c6.3224,6.3244,3.4432,22.7304-7.7032,43.8908c-12.1836,23.1288-32.6952,49.6716-57.7616,74.738
		c-4.8164,4.8164-9.6936,9.4024-14.586,13.8556c2.09,1.7696,4.16,3.4884,6.2128,5.1564c4.7072-4.3048,9.3984-8.7268,14.0296-13.3556
		c63.4608-63.4608,81.0936-114.3124,65.4648-129.9412c-13.0472-13.0508-50.6604-2.8868-99.6564,37.7536
		c0.33,0.2696,0.66,0.5276,0.9884,0.7972c1.7048,1.402,1.9492,3.9256,0.5448,5.6288c-0.7912,0.9608-1.9356,1.4568-3.09,1.4568
		c-0.8964,0-1.7968-0.3008-2.5408-0.914c-0.7052-0.582-1.412-1.1328-2.1172-1.7068c-2.5256,2.1872-5.0764,4.4528-7.6544,6.7928
		c0.4648,0.3908,0.924,0.758,1.3888,1.1484c1.6892,1.426,1.9044,3.9492,0.4804,5.6368c-0.7912,0.9376-1.922,1.422-3.0604,1.422
		c-0.9104,0-1.8264-0.3088-2.5764-0.9416c-0.7224-0.6092-1.4356-1.1796-2.156-1.7812c-3.4572,3.258-6.9512,6.6328-10.4904,10.172
		c-4.9572,4.9568-9.6796,9.9804-14.2636,15.0232c0.0468,1.2072-0.3848,2.418-1.3908,3.2424
		c-0.6972,0.574-1.5352,0.8476-2.3728,0.8828c-17.424,19.6756-31.6992,39.5624-41.1544,57.5156
		c-13.4436,25.5196-15.6152,43.9412-6.2812,53.2732c3.8008,3.8008,9.1092,5.6956,15.7908,5.6956
		c9.7248,0,22.3576-4.008,37.4824-11.9768c13.4064-7.0624,27.8984-16.8788,42.5684-28.6172
		c-2.1072-1.6912-4.2128-3.418-6.3204-5.1796C84.1937,171.6167,70.5997,180.7688,58.0257,187.394z"/>
	<path fill="#F8A131" d="M65.7621,103.6832c-2.1992,2.4764-4.4864,5.1092-6.8124,7.8396c2.164,2.4376,4.3532,4.8672,6.582,7.262
		c0.5664,0.6092,0.834,1.3552,0.9512,2.1208c2.3144-2.746,4.7772-5.582,7.3496-8.4764
		C71.0493,109.4875,68.3753,106.5775,65.7621,103.6832z"/>
	<path fill="#F8A131" d="M108.5961,140.5383c0.4452-0.5156,1.0056-0.836,1.5976-1.0664
		c5.5116-5.0388,11.0564-10.328,16.5664-15.8396c20.8904-20.8908,38.8436-42.3048,50.5488-60.3008
		c13.7656-21.164,17.1192-34.7932,10.252-41.6604C167.2345,1.3235,88.9221,79.1479,85.5981,82.4719
		c-0.8556,0.8556-6.666,6.7032-14.4532,15.2304c2.6036,2.8988,5.2832,5.8164,8.0624,8.758c4.5936-4.992,9.5312-10.16,14.8752-15.504
		c44.8008-44.8008,78.1736-62.8828,84.9372-60.746c2.1292,6.746-15.9432,40.1368-60.744,84.9376
		c-5.338,5.336-10.502,10.2696-15.4904,14.8592c1.2112,1.5276,1.2288,3.7112-0.1384,5.1796
		c-0.7872,0.844-1.8576,1.2736-2.928,1.2736c-0.9764,0-1.9548-0.3556-2.7244-1.0704c-0.0292-0.0272-0.0588-0.0584-0.088-0.086
		c-2.7676,2.4612-5.4744,4.8128-8.1072,7.0352c0.7284,1.4492,0.5544,3.2464-0.6156,4.508
		c-0.7868,0.8476-1.8592,1.2772-2.9316,1.2772c-0.8532,0-1.6856-0.3204-2.4024-0.8672
		c-26.3436,21.34-44.7204,30.1408-49.5116,28.6408c-1.5312-4.8596,7.4884-23.59,29.3556-50.4024
		c-0.0312,0-0.0588,0.0156-0.09,0.0156c-1.0704,0-2.1404-0.4296-2.9276-1.2736c-1.998-2.1444-3.9708-4.32-5.918-6.5036
		c-20.2304,24.6484-40.5664,55.0976-28.9608,66.7028c2.2988,2.3008,5.3572,3.4532,9.2028,3.4532
		c7.6368,0,18.3792-4.5508,32.4572-13.7068c8.342-5.426,17.4356-12.2424,26.8556-20.0236c0.1092-0.7072,0.3416-1.4024,0.8436-1.9884
		c0.8164-0.9528,1.9768-1.3672,3.1368-1.3396c3.5916-3.0432,7.2208-6.2304,10.8712-9.5312
		C108.3029,141.0423,108.3969,140.7688,108.5961,140.5383z"/>
	<path fill="#456782" d="M8.4025,46.8587c0.4844,0,0.9788-0.09,1.4572-0.2772c2.0568-0.8048,3.0724-3.1252,2.2656-5.1836
		c-2.0956-5.344-3.5-10.2268-4.174-14.512c-0.3456-2.1836-2.3944-3.6484-4.572-3.332c-2.1816,0.344-3.674,2.3908-3.33,4.5744
		c0.7636,4.8556,2.32,10.3048,4.6268,16.1912C5.2953,45.8979,6.8029,46.8587,8.4025,46.8587z"/>
	<path fill="#456782" d="M193.0081,196.8235c-2.086,1.2344-4.8612,1.8596-8.258,1.8596c-1.5-0.1212-3.0408-0.1136-4.7184-0.3516
		c-2.1544-0.3008-4.2092,1.2188-4.5196,3.4024c-0.3088,2.1872,1.2148,4.2108,3.4024,4.5192c2.0252,0.2852,3.9688,0.43,5.7676,0.43
		c4.828,0.0352,9.0448-0.9884,12.3964-2.9688c1.9024-1.1252,2.5332-3.5784,1.408-5.4804
		C197.3617,196.3355,194.9065,195.7063,193.0081,196.8235z"/>
	<path fill="#456782" d="M13.2641,53.8315c-1.9532,1.0352-2.6976,3.4532-1.6644,5.406c2.4024,4.5352,5.1604,9.2776,8.1996,14.094
		c0.7596,1.2068,2.0584,1.8672,3.3864,1.8672c0.7288,0,1.4688-0.1992,2.1308-0.6172c1.8672-1.1796,2.428-3.6484,1.2484-5.5156
		c-2.9316-4.6484-5.588-9.2148-7.8948-13.5704C17.6369,53.5423,15.2189,52.8003,13.2641,53.8315z"/>
	<path fill="#456782" d="M53.7581,117.7339c1.9472,2.1836,3.92,4.3592,5.918,6.5036c0.7872,0.844,1.8572,1.2736,2.9276,1.2736
		c0.0312,0,0.0588-0.0156,0.09-0.0156c0.9452-0.0236,1.8888-0.3632,2.6348-1.0548c1.0076-0.9412,1.3496-2.2696,1.1544-3.5352
		c-0.1172-0.7656-0.3848-1.5116-0.9512-2.1208c-2.2288-2.3948-4.418-4.8244-6.582-7.262c-1.344-1.5116-2.6856-3.0272-3.9904-4.5388
		c-0.5528-0.6408-1.2832-0.9924-2.0468-1.1916c-1.2248-0.3124-2.5628-0.1172-3.596,0.7696
		c-1.4256,1.2304-1.7008,3.2188-0.8808,4.8204c0.1428,0.2812,0.248,0.574,0.4612,0.82
		C50.4865,114.0463,52.1137,115.8939,53.7581,117.7339z"/>
	<path fill="#456782" d="M3.6625,15.3939c0.5896,0.3048,1.2188,0.4492,1.8376,0.4492c1.4476,0,2.844-0.7852,3.5548-2.16
		c0.4784-0.922,1.0488-1.7072,1.7444-2.4024c1.8592-1.8632,4.6052-2.9532,8.16-3.2344c2.2012-0.176,3.8456-2.1056,3.67-4.3048
		c-0.176-2.2068-2.0996-3.8476-4.3068-3.672c-5.506,0.4416-9.9412,2.3088-13.1816,5.5548c-1.2656,1.2656-2.338,2.7384-3.1876,4.3788
		C0.9357,11.9643,1.7013,14.3783,3.6625,15.3939z"/>
	<path fill="#456782" d="M198.6313,167.1359c-2.1152,0.6328-3.3164,2.8636-2.6836,4.9808c1.492,4.9804,2.248,9.3944,2.248,13.1248
		c0,0.4296-0.01,0.8556-0.0312,1.2736c-0.1076,2.2068,1.5936,4.082,3.8008,4.1912c0.0664,0.004,0.1328,0.004,0.1992,0.004
		c2.1188,0,3.8864-1.664,3.992-3.8048c0.0256-0.5428,0.0392-1.1016,0.0392-1.664c0-4.5076-0.8692-9.6952-2.584-15.422
		C202.9769,167.7023,200.7465,166.5188,198.6313,167.1359z"/>
	<path fill="#456782" d="M76.5493,130.1947c-1.5684-1.5624-4.1016-1.5624-5.6584,0.0076c-1.5604,1.5628-1.5568,4.094,0.006,5.6564
		c3.8184,3.8088,7.7324,7.578,11.6348,11.1992c0.0956,0.09,0.2168,0.1212,0.318,0.1992c0.7168,0.5468,1.5492,0.8672,2.4024,0.8672
		c1.0724,0,2.1448-0.4296,2.9316-1.2772c1.17-1.2616,1.344-3.0588,0.6156-4.508c-0.2092-0.414-0.4652-0.8124-0.8264-1.1484
		C84.1429,137.6359,80.2973,133.9368,76.5493,130.1947z"/>
	<path fill="#456782" d="M177.9105,132.4251c0.7716,0,1.5508-0.2228,2.2384-0.6876c1.828-1.238,2.3084-3.7224,1.07-5.5544
		c-2.906-4.2932-6.08-8.7268-9.4356-13.176c-1.328-1.7616-3.8356-2.1212-5.6012-0.7812c-1.764,1.328-2.1156,3.836-0.7852,5.6016
		c3.2732,4.336,6.3672,8.6564,9.1972,12.84C175.3673,131.808,176.6273,132.4251,177.9105,132.4251z"/>
	<path fill="#456782" d="M137.7893,180.0347c-4.256-2.6644-8.664-5.6136-13.1056-8.7696c-1.8044-1.2812-4.2968-0.8556-5.578,0.9452
		c-1.2792,1.8008-0.8556,4.2968,0.9452,5.578c4.5664,3.2424,9.1076,6.2812,13.4924,9.0276c0.66,0.414,1.3944,0.6092,2.1192,0.6092
		c1.332,0,2.6348-0.664,3.3944-1.8788C140.2289,183.6751,139.6605,181.2063,137.7893,180.0347z"/>
	<path fill="#456782" d="M61.5061,22.7687c4.3088,2.5,8.7932,5.3128,13.33,8.3596c0.6856,0.4608,1.4592,0.6796,2.2268,0.6796
		c1.2868,0,2.5528-0.6212,3.324-1.7696c1.2324-1.832,0.7444-4.32-1.0896-5.5508c-4.6816-3.1444-9.3164-6.0508-13.7756-8.6404
		c-1.912-1.1056-4.3552-0.4532-5.4668,1.4532C58.9457,19.2103,59.5961,21.6595,61.5061,22.7687z"/>
	<path fill="#456782" d="M110.6681,160.6947c-2.0976-1.668-4.1992-3.3788-6.3044-5.1252c-1.5256-1.2692-3.0528-2.5348-4.5664-3.8356
		c-0.7268-0.6212-1.6152-0.8792-2.504-0.9024c-1.16-0.0276-2.3204,0.3868-3.1368,1.3396c-0.502,0.586-0.7344,1.2812-0.8436,1.9884
		c-0.2072,1.3244,0.1856,2.7148,1.2772,3.6524c1.1308,0.9688,2.2736,1.91,3.41,2.8632c2.1076,1.7616,4.2132,3.4884,6.3204,5.1796
		c0.922,0.7384,1.846,1.5,2.7636,2.2228c0.7324,0.5744,1.6036,0.8556,2.4708,0.8556c1.1836,0,2.3556-0.5236,3.1464-1.5276
		c1.3652-1.7344,1.0648-4.25-0.6716-5.6172C111.5785,161.4332,111.1213,161.054,110.6681,160.6947z"/>
	<path fill="#456782" d="M193.9533,160.0815c0.5704,0,1.1504-0.1212,1.7012-0.3792c1.998-0.9412,2.8576-3.324,1.916-5.324
		c-2.164-4.6016-4.744-9.4648-7.666-14.4532c-1.1192-1.9024-3.5684-2.5468-5.4724-1.4296c-1.9064,1.1172-2.5472,3.5704-1.43,5.4764
		c2.8008,4.7812,5.2676,9.43,7.3304,13.8128C191.0141,159.2339,192.4533,160.0815,193.9533,160.0815z"/>
	<path fill="#456782" d="M29.7933,81.2143c-1.7968,1.2852-2.2128,3.7812-0.9276,5.582c3.0272,4.2344,6.3024,8.586,9.734,12.9336
		c0.7892,1,1.9612,1.5232,3.1428,1.5232c0.8692,0,1.742-0.2812,2.4764-0.8592c1.7344-1.3672,2.0296-3.8828,0.6624-5.6172
		c-3.3556-4.25-6.5528-8.504-9.508-12.6368C34.0881,80.3471,31.5901,79.9291,29.7933,81.2143z"/>
	<path fill="#456782" d="M33.3089,10.0071c4.3808,1.2616,9.2108,3.1132,14.3556,5.496c0.5448,0.254,1.1152,0.3712,1.6796,0.3712
		c1.5096,0,2.9552-0.8592,3.6308-2.3164c0.9296-2.0076,0.0568-4.3828-1.9472-5.3124c-5.5156-2.5548-10.7304-4.5508-15.504-5.926
		c-2.1212-0.6092-4.34,0.6136-4.9512,2.7344C29.9613,7.1791,31.1857,9.3939,33.3089,10.0071z"/>
	<path fill="#456782" d="M165.5061,194.3355c-4.416-1.6956-9.168-3.8672-14.1228-6.4612c-1.9612-1.0312-4.3772-0.2656-5.4004,1.6876
		c-1.0236,1.9568-0.2676,4.3748,1.6892,5.3984c5.2284,2.7384,10.2656,5.0392,14.9708,6.8436
		c0.4708,0.18,0.9552,0.2656,1.4316,0.2656c1.6076,0,3.1252-0.9764,3.7344-2.5664
		C168.5997,197.4408,167.5705,195.1243,165.5061,194.3355z"/>
	<path fill="#456782" d="M102.6681,50.9875c1.1544,0,2.2988-0.496,3.09-1.4568c1.4044-1.7032,1.16-4.2268-0.5448-5.6288
		c-0.3284-0.2696-0.6584-0.5276-0.9884-0.7972c-3.9256-3.2108-7.8652-6.32-11.7248-9.2148
		c-1.7636-1.3204-4.2752-0.9648-5.5996,0.7968c-1.326,1.7696-0.9684,4.2776,0.7992,5.6016
		c3.3924,2.5472,6.8512,5.2736,10.3104,8.0784c0.7052,0.574,1.412,1.1248,2.1172,1.7068
		C100.8713,50.6867,101.7717,50.9875,102.6681,50.9875z"/>
	<path fill="#456782" d="M175.6917,167.2883c0.6152,1.586,2.1268,2.5548,3.7304,2.5548c0.4804,0,0.9708-0.086,1.4452-0.2696
		c2.0588-0.7968,3.0824-3.1132,2.2852-5.1756c-1.6756-4.3244-4.2108-9.3284-7.5368-14.8672
		c-1.1368-1.8948-3.594-2.504-5.4884-1.3712c-1.8944,1.1368-2.508,3.5936-1.3712,5.4884
		C171.8481,158.7963,174.1821,163.3859,175.6917,167.2883z"/>
	<path fill="#456782" d="M114.2385,140.14c-1.158-1.0076-2.7108-1.1796-4.0448-0.668c-0.592,0.2304-1.1524,0.5508-1.5976,1.0664
		c-0.1992,0.2304-0.2932,0.504-0.4316,0.762c-0.8652,1.6092-0.6096,3.6288,0.828,4.8788c1.0604,0.922,2.1172,1.8048,3.1756,2.7068
		c2.092,1.7776,4.166,3.508,6.2288,5.1956c1.002,0.8204,2.0136,1.664,3.0036,2.4568c0.7384,0.594,1.6212,0.8792,2.4984,0.8792
		c1.1716,0,2.334-0.512,3.1248-1.5c1.3808-1.7228,1.1016-4.2424-0.6232-5.6212c-0.662-0.5312-1.3436-1.1056-2.0136-1.6484
		c-2.0528-1.668-4.1228-3.3868-6.2128-5.1564C116.8637,142.3824,115.5529,141.2807,114.2385,140.14z"/>
	<path fill="#456782" d="M46.7113,29.4915c-1.0684,1.9336-0.3652,4.3672,1.5684,5.4336c4.0604,2.2424,8.5212,5.0236,13.2556,8.258
		c0.6916,0.4724,1.4768,0.6992,2.254,0.6992c1.2772,0,2.5312-0.6096,3.3068-1.7424c1.246-1.824,0.7792-4.3124-1.0452-5.5584
		c-4.9452-3.3828-9.6228-6.2932-13.904-8.6564C50.2133,26.8511,47.7797,27.5619,46.7113,29.4915z"/>
	<path fill="#456782" d="M138.9653,159.8743c-1.7892-1.2852-4.2932-0.8788-5.584,0.9064c-1.2932,1.7928-0.8868,4.2928,0.904,5.586
		c4.756,3.4296,9.3144,6.4804,13.5472,9.07c0.6504,0.3988,1.3728,0.59,2.084,0.59c1.3456,0,2.66-0.6796,3.416-1.91
		c1.152-1.8868,0.5604-4.348-1.3244-5.5C147.9477,166.1283,143.5589,163.1908,138.9653,159.8743z"/>
	<path fill="#456782" d="M63.4985,95.1555c-1.6524,1.4688-1.8008,3.9964-0.336,5.6484c0.8456,0.9532,1.7344,1.918,2.5996,2.8792
		c2.6132,2.8944,5.2872,5.8044,8.0704,8.746c0.082,0.086,0.16,0.1756,0.244,0.2616c0.7872,0.828,1.8436,1.246,2.9024,1.246
		c0.988,0,1.9784-0.3632,2.752-1.0976c1.6032-1.5196,1.6696-4.0508,0.1504-5.656c-0.2288-0.2424-0.4456-0.4808-0.674-0.7228
		c-2.7792-2.9416-5.4588-5.8592-8.0624-8.758c-0.662-0.734-1.3476-1.4764-1.998-2.2108
		C67.6821,93.8431,65.1545,93.6908,63.4985,95.1555z"/>
	<path fill="#456782" d="M90.9885,118.5307c-1.5684-1.5468-4.1036-1.5432-5.656,0.0272c-1.5548,1.5704-1.5432,4.1056,0.0272,5.6604
		c3.8652,3.824,7.7228,7.5272,11.5468,11.0856c0.0292,0.0276,0.0588,0.0588,0.088,0.086c0.7696,0.7148,1.748,1.0704,2.7244,1.0704
		c1.0704,0,2.1408-0.4296,2.928-1.2736c1.3672-1.4684,1.3496-3.652,0.1384-5.1796c-0.1228-0.156-0.1932-0.336-0.3416-0.4764
		C98.6489,125.9995,94.8245,122.3316,90.9885,118.5307z"/>
	<path fill="#456782" d="M163.3713,142.2415c0.8028,0,1.6132-0.242,2.3184-0.742c1.7988-1.2852,2.2168-3.7812,0.9356-5.5784
		c-2.9628-4.156-6.252-8.5076-9.7736-12.9372c-1.3788-1.7308-3.8904-2.0156-5.6208-0.6368
		c-1.7288,1.3748-2.0156,3.8904-0.6408,5.6212c3.4356,4.3164,6.6388,8.5544,9.5196,12.5936
		C160.8909,141.6595,162.1213,142.2415,163.3713,142.2415z"/>
	<path fill="#456782" d="M182.5765,178.4368c-1.3516-1.75-3.8596-2.078-5.6096-0.7344c-1.0036,0.7696-3.5644,1.2852-11.3572-1.9372
		c-2.0448-0.8476-4.3828,0.1248-5.2248,2.164c-0.8456,2.0428,0.1252,4.3828,2.166,5.2264c4.8928,2.0276,8.9104,3.012,12.2796,3.012
		c2.822,0,5.1816-0.7152,7.0116-2.1212C183.5941,182.6987,183.9221,180.1868,182.5765,178.4368z"/>
	<path fill="#456782" d="M32.2385,44.6947c-0.9764-1.9804-3.3728-2.7968-5.3572-1.8164c-1.9824,0.9764-2.7952,3.3748-1.8184,5.3556
		c2.1248,4.3084,4.904,9.1016,8.2576,14.2536c0.7656,1.176,2.0468,1.8164,3.3556,1.8164c0.748,0,1.506-0.2108,2.1776-0.6484
		c1.8516-1.2032,2.3752-3.6836,1.17-5.5352C36.8421,53.2339,34.2229,48.7183,32.2385,44.6947z"/>
	<path fill="#456782" d="M23.9005,35.2727c2.2092,0,4-1.832,4-4.0428c0-1.09,0.1976-1.8868,0.5508-2.2424
		c0.7072-0.7028,3.1312-0.742,6.1136,0.0156c2.1504,0.5352,4.3164-0.7576,4.8592-2.8944c0.5428-2.1444-0.752-4.3204-2.8944-4.8632
		c-6.2012-1.5664-10.7952-0.8476-13.7324,2.086c-1.922,1.9216-2.8968,4.582-2.8968,7.9804
		C19.9005,33.5227,21.6917,35.2727,23.9005,35.2727z"/>
	<path fill="#456782" d="M59.6781,85.8391c-0.0332-0.8436-0.2636-1.6836-0.84-2.3868c-3.492-4.25-6.7812-8.4336-9.7752-12.4412
		c-1.3224-1.7696-3.8264-2.1368-5.5976-0.8088c-1.7696,1.3204-2.1328,3.8284-0.8088,5.598
		c3.0664,4.1052,6.4316,8.3864,10.002,12.7304c0.7912,0.9648,1.9376,1.4608,3.0916,1.4608c0.0548,0,0.1076-0.0272,0.1644-0.0272
		c0.8376-0.0352,1.6756-0.3088,2.3728-0.8828C59.2933,88.2571,59.7249,87.0463,59.6781,85.8391z"/>
	<path fill="#456782" d="M89.1645,63.3667c1.1384,0,2.2692-0.4844,3.0604-1.422c1.424-1.6876,1.2088-4.2108-0.4804-5.6368
		c-0.4648-0.3904-0.924-0.7576-1.3888-1.1484c-3.7812-3.1564-7.5428-6.2032-11.1932-9.0196
		c-1.7444-1.3396-4.258-1.0232-5.6096,0.7228c-1.3496,1.75-1.0272,4.2616,0.7228,5.6132c3.3124,2.5588,6.7244,5.3164,10.1564,8.168
		c0.7204,0.6016,1.4336,1.172,2.156,1.7812C87.3381,63.0579,88.2541,63.3667,89.1645,63.3667z"/>
	<path fill="#4A8F9E" d="M104.0081,116.6439c6.6172,0,12-5.3828,12-12c0-6.6172-5.3828-12-12-12c-6.6172,0-12,5.3828-12,12
		C92.0081,111.2611,97.3909,116.6439,104.0081,116.6439z"/>
</g>
</svg>
