<?xml version="1.0" standalone="no"?>
<!DOCTYPE svg PUBLIC "-//W3C//DTD SVG 20010904//EN"
 "http://www.w3.org/TR/2001/REC-SVG-20010904/DTD/svg10.dtd">
<svg version="1.0" xmlns="http://www.w3.org/2000/svg"
 width="260.000000pt" height="260.000000pt" viewBox="0 0 260.000000 260.000000"
 preserveAspectRatio="xMidYMid meet">
<metadata>
Created by potrace 1.11, written by Peter Selinger 2001-2013
</metadata>
<g transform="translate(0.000000,260.000000) scale(0.100000,-0.100000)"
fill="#000000" stroke="none">
<path d="M1337 2575 c-48 -16 -64 -30 -83 -72 -31 -64 -2 -151 60 -181 18 -9
25 -19 22 -30 -9 -28 -176 -612 -176 -615 0 -1 -15 -4 -32 -5 -56 -4 -160 -33
-226 -63 -205 -92 -374 -275 -445 -479 -38 -110 -47 -169 -47 -290 0 -85 2
-106 21 -190 27 -122 122 -291 215 -384 267 -266 671 -325 994 -144 143 80
261 204 335 350 24 49 42 88 38 88 -3 0 -1 6 5 13 22 26 45 146 47 250 6 248
-77 450 -257 629 -27 26 -48 52 -48 58 0 10 89 329 140 500 10 36 23 80 27 99
7 28 14 35 38 38 81 11 136 100 110 177 -23 66 -70 98 -180 122 -5 1 -113 31
-240 67 -289 81 -273 78 -318 62z m-704 -1556 c39 -11 112 -32 162 -45 49 -14
90 -26 91 -27 3 -5 14 -57 11 -57 -1 0 -59 16 -127 35 -124 36 -137 36 -141 0
0 -5 -3 -19 -5 -30 -12 -55 -5 -188 15 -258 60 -220 220 -372 456 -432 53 -14
187 -13 254 3 177 39 329 157 409 317 45 91 47 103 20 114 -13 5 -164 49 -335
97 -172 48 -313 90 -313 94 0 4 8 14 18 23 17 16 23 16 78 -2 32 -10 192 -55
354 -100 162 -45 305 -86 317 -91 l23 -10 -20 -52 c-121 -315 -439 -502 -771
-452 -30 4 -57 8 -61 8 -3 1 -10 4 -14 9 -4 4 -16 7 -26 7 -59 0 -223 102
-306 189 -169 177 -238 441 -176 664 6 21 0 21 87 -4z"/>
</g>
</svg>
