<?xml version="1.0" encoding="utf-8"?>
<!-- Generator: Adobe Illustrator 19.2.0, SVG Export Plug-In . SVG Version: 6.00 Build 0)  -->
<svg version="1.1" id="planetarysystem" xmlns="http://www.w3.org/2000/svg" xmlns:xlink="http://www.w3.org/1999/xlink" x="0px"
	 y="0px" viewBox="0 0 212.0002 212.0001" enable-background="new 0 0 212.0002 212.0001" xml:space="preserve">
<g>
	<path fill="none" d="M158.0001,162.0001c6.0664,0,11.5996,2.2812,15.828,6.006c15.5588-16.9944,24.172-38.844,24.172-62.006
		c0-50.7284-41.2716-92-92-92s-92,41.2716-92,92s41.2716,92,92,92c10.41,0,19.9608-1.6212,29.1252-4.752
		c-0.7268-2.2872-1.1252-4.7208-1.1252-7.248C134.0001,172.7657,144.7657,162.0001,158.0001,162.0001z M40.0001,106.0001
		c0-36.3924,29.6076-66,66-66c19.8416,0,38.4472,8.8068,51.0468,24.162c0.506,0.6172,0.8616,1.3068,1.086,2.0256
		c0.6212-0.0644,1.2284-0.1876,1.8672-0.1876c9.9256,0,18,8.0744,18,18c0,5.6328-2.6524,10.6056-6.7168,13.91
		c0.4572,2.8828,0.7168,4.7444,0.7168,8.09c0,36.3924-29.6076,66-66,66S40.0001,142.3925,40.0001,106.0001z"/>
	<path fill="none" d="M142.0001,84.0001c0-4.9728,2.0272-9.4784,5.2988-12.7384c-10.3008-12.2344-25.2988-19.2616-41.2988-19.2616
		c-29.7752,0-54,24.2248-54,54s24.2248,54,54,54s54-24.2248,54-54c0-1.672-0.084-2.7676-0.246-4.0252
		C149.9433,101.8401,142.0001,93.8417,142.0001,84.0001z M106.0001,142.0001c-19.8496,0-36-16.1504-36-36s16.1504-36,36-36
		s36,16.1504,36,36S125.8497,142.0001,106.0001,142.0001z"/>
	<path fill="none" d="M106.0001,86.0001c-11.0272,0-20,8.9728-20,20s8.9728,20,20,20s20-8.9728,20-20
		S117.0273,86.0001,106.0001,86.0001z"/>
	<path fill="#FD5A5A" d="M106.0001,6.0001c-55.1408,0-100,44.8592-100,100s44.8592,100,100,100
		c11.7404,0,22.506-1.8848,32.8632-5.576c-1.6212-2.1468-2.908-4.5568-3.738-7.176c-9.1644,3.1308-18.7152,4.752-29.1252,4.752
		c-50.7284,0-92-41.2716-92-92s41.2716-92,92-92s92,41.2716,92,92c0,23.162-8.6132,45.0116-24.172,62.006
		c2.0488,1.8044,3.7932,3.9392,5.1328,6.3376c17.4396-18.5956,27.0392-42.7576,27.0392-68.3436
		C206.0001,50.8593,161.1409,6.0001,106.0001,6.0001z"/>
	<path fill="#9AB040" d="M172.0001,106.0001c0-3.3456-0.2596-5.2072-0.7168-8.09c-3.0956,2.5156-6.9904,4.09-11.2832,4.09
		c-0.084,0-0.162-0.0236-0.246-0.0252c0.162,1.2576,0.246,2.3532,0.246,4.0252c0,29.7752-24.2248,54-54,54s-54-24.2248-54-54
		s24.2248-54,54-54c16,0,30.998,7.0272,41.2988,19.2616c2.836-2.83,6.6348-4.6328,10.834-5.074
		c-0.2244-0.7188-0.58-1.4084-1.086-2.0256c-12.5996-15.3552-31.2052-24.162-51.0468-24.162c-36.3924,0-66,29.6076-66,66
		s29.6076,66,66,66S172.0001,142.3925,172.0001,106.0001z"/>
	<path fill="#49A25A" d="M173.8281,168.0061c-4.2284-3.7248-9.7616-6.006-15.828-6.006c-13.2344,0-24,10.7656-24,24
		c0,2.5272,0.3984,4.9608,1.1252,7.248c0.83,2.6192,2.1168,5.0292,3.738,7.176c4.3848,5.8024,11.3184,9.576,19.1368,9.576
		c13.2344,0,24-10.7656,24-24c0-4.2304-1.1092-8.2012-3.0392-11.6564C177.6213,171.9453,175.8769,169.8105,173.8281,168.0061z"/>
	<path fill="#49A25A" d="M142.0001,84.0001c0,9.8416,7.9432,17.84,17.754,17.9748c0.084,0.0016,0.162,0.0252,0.246,0.0252
		c4.2928,0,8.1876-1.5744,11.2832-4.09c4.0644-3.3044,6.7168-8.2772,6.7168-13.91c0-9.9256-8.0744-18-18-18
		c-0.6388,0-1.246,0.1232-1.8672,0.1876c-4.1992,0.4412-7.998,2.244-10.834,5.074
		C144.0273,74.5217,142.0001,79.0273,142.0001,84.0001z"/>
	<path fill="#8F89F5" d="M106.0001,70.0001c-19.8496,0-36,16.1504-36,36s16.1504,36,36,36s36-16.1504,36-36
		S125.8497,70.0001,106.0001,70.0001z M106.0001,126.0001c-11.0272,0-20-8.9728-20-20s8.9728-20,20-20s20,8.9728,20,20
		S117.0273,126.0001,106.0001,126.0001z"/>
	<path fill="#9D57C4" d="M210.8281,1.1721c-1.5624-1.5628-4.0936-1.5628-5.656,0l-24,24c-1.5628,1.5624-1.5628,4.0936,0,5.656
		c0.7812,0.7812,1.8044,1.172,2.828,1.172c1.0236,0,2.0468-0.3908,2.828-1.172l24-24
		C212.3909,5.2657,212.3909,2.7345,210.8281,1.1721z"/>
	<path fill="#9D57C4" d="M25.1721,181.1721l-24,24c-1.5628,1.5624-1.5628,4.0936,0,5.656c0.7812,0.7812,1.8044,1.172,2.828,1.172
		s2.0468-0.3908,2.828-1.172l24-24c1.5628-1.5624,1.5628-4.0936,0-5.656C29.2657,179.6093,26.7345,179.6093,25.1721,181.1721z"/>
</g>
</svg>
