<?xml version="1.0" encoding="utf-8"?>
<!-- Generator: Adobe Illustrator 19.2.0, SVG Export Plug-In . SVG Version: 6.00 Build 0)  -->
<svg version="1.1" id="scientistavatar" xmlns="http://www.w3.org/2000/svg" xmlns:xlink="http://www.w3.org/1999/xlink" x="0px"
	 y="0px" viewBox="0 0 196.1164 204" enable-background="new 0 0 196.1164 204" xml:space="preserve">
<g>
	<path fill="#EB4548" d="M77.773,140h42.2852c3.3144,0,6-2.6856,6-6s-2.6856-6-6-6H77.773c-3.3144,0-6,2.6856-6,6
		S74.4586,140,77.773,140z"/>
	<path fill="#4F676D" d="M195.2066,17.1016c-1.4044-1.7072-3.9236-1.9592-5.6288-0.5508l-11.4944,9.4432
		C173.0426,10.914,158.8122,0,142.0582,0c-16.006,0-29.7052,9.9608-35.2948,24H89.351C83.7634,9.9608,70.0642,0,54.0582,0
		C37.3042,0,23.0738,10.914,18.033,25.994L6.5386,16.5508c-1.7052-1.4044-4.2284-1.1584-5.6288,0.5508
		c-1.4024,1.7068-1.1564,4.2264,0.5508,5.6288l13.8592,11.3868c0.2796,0.2304,0.596,0.3712,0.9084,0.5136
		c-0.0976,1.1112-0.17,2.2324-0.17,3.3692c0,20.9532,17.0468,38,38,38s38-17.0468,38-38c0-2.0468-0.2072-4.0392-0.5216-6h13.0432
		c-0.3128,1.9608-0.5216,3.9532-0.5216,6c0,20.9532,17.0468,38,38,38c20.9532,0,38-17.0468,38-38
		c0-1.1368-0.0724-2.258-0.172-3.3692c0.3144-0.1424,0.6308-0.2832,0.9104-0.5136l13.8592-11.3868
		C196.363,21.328,196.609,18.8084,195.2066,17.1016z M54.0582,68c-10.6076,0-19.9256-5.5488-25.2616-13.8808l-0.0488,0.0392
		c-0.7364,0.5856-1.6152,0.8688-2.4884,0.8688c-1.1776,0-2.3436-0.5176-3.1328-1.5096c-1.3752-1.7304-1.088-4.246,0.6404-5.6212
		l1.5744-1.252c-0.826-2.738-1.2832-5.6384-1.2832-8.6444c0-16.5428,13.4572-30,30-30c5.414,0,10.4824,1.4608,14.8712,3.9804
		l0.7616-0.6056c1.7264-1.3788,4.246-1.0876,5.6212,0.6408c1.156,1.4552,1.074,3.4276,0.0096,4.8476
		c5.3964,5.426,8.7364,12.8984,8.7364,21.1368C84.0582,54.5428,70.601,68,54.0582,68z M142.0582,68
		c-10.6076,0-19.9256-5.5488-25.2616-13.8808l-0.0488,0.0392c-0.7364,0.5856-1.6152,0.8688-2.4884,0.8688
		c-1.1776,0-2.3436-0.5176-3.1328-1.5096c-1.3752-1.7304-1.088-4.246,0.6404-5.6212l1.5744-1.252
		c-0.826-2.738-1.2832-5.6384-1.2832-8.6444c0-16.5428,13.4572-30,30-30c5.414,0,10.4824,1.4608,14.8712,3.9804l0.7616-0.6056
		c1.7264-1.3788,4.244-1.0876,5.6212,0.6408c1.156,1.4552,1.074,3.4276,0.0096,4.8476c5.3964,5.426,8.7364,12.8984,8.7364,21.1368
		C172.0582,54.5428,158.601,68,142.0582,68z"/>
	<path fill="#7BE5E4" d="M74.6714,17.6368L28.7966,54.1192C34.1326,62.4512,43.4506,68,54.0582,68c16.5428,0,30-13.4572,30-30
		c0-8.2384-3.34-15.7108-8.7364-21.1368C75.1206,17.1328,74.947,17.418,74.6714,17.6368z"/>
	<path fill="#7BE5E4" d="M54.0582,8c-16.5428,0-30,13.4572-30,30c0,3.006,0.4572,5.9064,1.2832,8.6444l43.588-34.664
		C64.5406,9.4608,59.4722,8,54.0582,8z"/>
	<path fill="#7BE5E4" d="M162.6714,17.6368l-45.8748,36.4824C122.1326,62.4512,131.4506,68,142.0582,68c16.5428,0,30-13.4572,30-30
		c0-8.2384-3.34-15.7108-8.7364-21.1368C163.1206,17.1328,162.947,17.418,162.6714,17.6368z"/>
	<path fill="#7BE5E4" d="M142.0582,8c-16.5428,0-30,13.4572-30,30c0,3.006,0.4572,5.9064,1.2832,8.6444l43.588-34.664
		C152.5406,9.4608,147.4722,8,142.0582,8z"/>
	<path fill="#B7F5F0" d="M163.3218,16.8632c1.0644-1.42,1.1464-3.3924-0.0096-4.8476c-1.3772-1.7284-3.8948-2.0196-5.6212-0.6408
		l-0.7616,0.6056l-43.588,34.664l-1.5744,1.252c-1.7284,1.3752-2.0156,3.8908-0.6404,5.6212
		c0.7892,0.992,1.9552,1.5096,3.1328,1.5096c0.8732,0,1.752-0.2832,2.4884-0.8688l0.0488-0.0392l45.8748-36.4824
		C162.947,17.418,163.1206,17.1328,163.3218,16.8632z"/>
	<path fill="#B7F5F0" d="M75.3218,16.8632c1.0644-1.42,1.1464-3.3924-0.0096-4.8476c-1.3752-1.7284-3.8948-2.0196-5.6212-0.6408
		l-0.7616,0.6056l-43.588,34.664l-1.5744,1.252c-1.7284,1.3752-2.0156,3.8908-0.6404,5.6212
		c0.7892,0.992,1.9552,1.5096,3.1328,1.5096c0.8732,0,1.752-0.2832,2.4884-0.8688l0.0488-0.0392l45.8748-36.4824
		C74.947,17.418,75.1206,17.1328,75.3218,16.8632z"/>
	<path fill="#89714D" d="M140.0874,88h-83.994c-17.664,0-32.0352,14.3556-32.0352,32v12.584c0,1.1036,0.4552,2.158,1.2596,2.914
		c0.8028,0.754,1.84,1.1408,2.9844,1.078c4.9632-0.32,11.3164,0.928,19.3088,2.8692c1.0372,0.258,2.1404,0.0784,3.0488-0.4864
		c0.912-0.5644,1.5584-1.4684,1.7948-2.5136C54.0934,129.2344,60.6538,124,68.0542,124h60.008
		c7.4024,0,13.9628,5.2324,15.5996,12.4432c0.2364,1.0452,0.8828,1.9512,1.7928,2.5156c0.6388,0.3948,1.3692,0.5996,2.1076,0.5996
		c0.3164,0,0.6328-0.0368,0.9432-0.1132c7.9944-1.9392,14.342-3.1856,19.3088-2.8692c1.1364,0.0824,2.1816-0.322,2.9844-1.078
		c0.8044-0.756,1.2596-1.8104,1.2596-2.914V120C172.0582,102.3556,157.7166,88,140.0874,88z"/>
	<path fill="#89714D" d="M154.0406,146.8712c-6.2696-4.9024-15.254-2.67-26.6348,0.156c-8.2068,2.0372-17.5076,4.346-27.3476,4.346
		s-19.1408-2.3088-27.3476-4.346c-11.3772-2.826-20.3692-5.0564-26.6348-0.156c-4.1056,3.2108-6.0176,8.7732-6.0176,17.5036
		c0,34.918,30.33,39.6252,60,39.6252s60-4.7072,60-39.6252C160.0582,155.6444,158.1462,150.082,154.0406,146.8712z"/>
</g>
</svg>
